<svg width="24" height="24" viewBox="0 0 24 24" fill="none" xmlns="http://www.w3.org/2000/svg">
<path d="M12.25 7.25C12.6642 7.25 13 7.58579 13 8V12.4838C13.0008 12.5205 12.9988 12.5572 12.9942 12.5934C12.9676 12.8044 12.8518 13.0006 12.6662 13.124C12.6359 13.1443 12.6041 13.1623 12.5709 13.1781L8.58545 15.1708C8.21497 15.3561 7.76446 15.2059 7.57922 14.8354C7.39398 14.4649 7.54415 14.0144 7.91463 13.8292L11.5 12.0365V8C11.5 7.58579 11.8358 7.25 12.25 7.25Z" fill="#13193A"/>
<path fill-rule="evenodd" clip-rule="evenodd" d="M1.25 12C1.25 6.06294 6.06294 1.25 12 1.25C17.9371 1.25 22.75 6.06294 22.75 12C22.75 17.9371 17.9371 22.75 12 22.75C6.06294 22.75 1.25 17.9371 1.25 12ZM12 2.75C6.89137 2.75 2.75 6.89137 2.75 12C2.75 17.1086 6.89137 21.25 12 21.25C17.1086 21.25 21.25 17.1086 21.25 12C21.25 6.89137 17.1086 2.75 12 2.75Z" fill="#13193A"/>
</svg>
