<svg width="24" height="24" viewBox="0 0 24 24" fill="none" xmlns="http://www.w3.org/2000/svg">
<path d="M19 18.5586L20.0005 15.2012M4.99969 18.56L2.36402 9.71451C2.23364 9.27991 2.70294 8.91032 3.09487 9.13894L5.10683 10.3126C6.65046 11.213 8.63409 10.5727 9.35988 8.93967L11.5428 4.02813C11.7187 3.63222 12.2806 3.63222 12.4566 4.02813L14.6395 8.93967C15.3653 10.5727 17.3489 11.213 18.8926 10.3126L20.9045 9.13894C21.2964 8.91032 21.7657 9.27992 21.6354 9.71451L20.9765 11.9255" stroke="#13193A" stroke-width="1.5" stroke-linecap="round" stroke-linejoin="round"/>
<path d="M7.01889 19.5539C5.77058 19.283 5 18.9108 5 18.5C5 17.6716 8.13401 17 12 17C15.866 17 19 17.6716 19 18.5C19 19.3284 15.866 20 12 20C11.5335 20 11.0777 19.9902 10.6368 19.9716" stroke="#13193A" stroke-width="1.5" stroke-linecap="round"/>
</svg>
