<svg width="24" height="24" viewBox="0 0 24 24" fill="none" xmlns="http://www.w3.org/2000/svg">
<path fill-rule="evenodd" clip-rule="evenodd" d="M10.375 2.23538C11.3457 1.58821 12.6104 1.58821 13.5812 2.23538L21.7947 7.71109C23.1051 8.58467 23.0589 10.5253 21.7085 11.3356C21.4042 11.5181 21.0769 11.6135 20.75 11.6374V17.755C20.75 20.2384 18.7345 22.25 16.2503 22.25H7.74969C5.26546 22.25 3.25 20.2384 3.25 17.755V11.6815C2.92872 11.6516 2.60991 11.553 2.31606 11.3767C0.933834 10.5473 0.886572 8.56097 2.22778 7.66683L10.375 2.23538ZM12.7491 3.48345C12.2822 3.17218 11.6739 3.17218 11.207 3.48345L3.05983 8.9149C2.63485 9.19823 2.64983 9.82763 3.0878 10.0904C3.29408 10.2142 3.57578 10.2303 3.84371 10.1053C6.25411 8.98078 9.30781 8.42496 12.2351 8.40731C15.154 8.3897 18.0486 8.90678 20.117 10.0216C20.4184 10.1841 20.7283 10.1744 20.9367 10.0494C21.3429 9.80565 21.3568 9.22192 20.9627 8.95916L12.7491 3.48345ZM12.2442 9.90728C14.9418 9.891 17.4872 10.3614 19.25 11.2606V17.755C19.25 19.4082 17.9079 20.75 16.2503 20.75H14.75V19.25C14.75 17.7312 13.5188 16.5 12 16.5C10.4812 16.5 9.25 17.7312 9.25 19.25V20.75H7.74969C6.09213 20.75 4.75 19.4082 4.75 17.755V11.3417C6.87949 10.4104 9.58911 9.9233 12.2442 9.90728ZM10.75 20.75H13.25V19.25C13.25 18.5596 12.6904 18 12 18C11.3096 18 10.75 18.5596 10.75 19.25V20.75Z" fill="white"/>
</svg>
